<svg width="92" height="24" viewBox="0 0 92 24" fill="none" xmlns="http://www.w3.org/2000/svg">
  <path fill-rule="evenodd" clip-rule="evenodd" d="M20 2H10L0 12V22L20 2Z" fill="white"/>
  <path d="M0 2H10L0 12V2Z" fill="#BBBBBB"/>
  <path d="M29 18.4561V5.36523H34.6506C35.6222 5.36523 36.4723 5.557 37.201 5.94052C37.9297 6.32404 38.4964 6.8631 38.9013 7.55771C39.3061 8.25231 39.5085 9.0641 39.5085 9.99308C39.5085 10.9306 39.2997 11.7424 38.8821 12.4284C38.4688 13.1145 37.8871 13.6429 37.1371 14.0137C36.3913 14.3844 35.5199 14.5698 34.5227 14.5698H31.1477V11.8084H33.8068C34.2244 11.8084 34.5803 11.736 34.8743 11.5911C35.1726 11.4419 35.4006 11.231 35.5582 10.9583C35.7202 10.6855 35.8011 10.3638 35.8011 9.99308C35.8011 9.61808 35.7202 9.29847 35.5582 9.03427C35.4006 8.7658 35.1726 8.56126 34.8743 8.42063C34.5803 8.27575 34.2244 8.2033 33.8068 8.2033H32.554V18.4561H29Z" fill="white"/>
  <path d="M43.34 18.6096C42.7136 18.6096 42.1596 18.5073 41.678 18.3027C41.2008 18.0939 40.8258 17.7786 40.553 17.3567C40.2803 16.9348 40.144 16.3979 40.144 15.7459C40.144 15.209 40.2356 14.7509 40.4188 14.3716C40.6021 13.9881 40.8577 13.6749 41.1859 13.432C41.514 13.1891 41.8954 13.0037 42.33 12.8759C42.769 12.748 43.242 12.665 43.7491 12.6266C44.2988 12.584 44.7398 12.5328 45.0722 12.4732C45.4089 12.4093 45.6518 12.3219 45.8009 12.2111C45.9501 12.0961 46.0246 11.9448 46.0246 11.7573V11.7317C46.0246 11.476 45.9266 11.28 45.7306 11.1436C45.5346 11.0073 45.2832 10.9391 44.9763 10.9391C44.6397 10.9391 44.3648 11.0137 44.1518 11.1628C43.943 11.3077 43.8173 11.5314 43.7746 11.834H40.5275C40.5701 11.2374 40.7597 10.6877 41.0964 10.1848C41.4373 9.67773 41.9337 9.27291 42.5857 8.97035C43.2377 8.66353 44.0516 8.51012 45.0275 8.51012C45.7306 8.51012 46.3613 8.59322 46.9195 8.75941C47.4778 8.92134 47.9529 9.14933 48.345 9.44336C48.737 9.73313 49.0353 10.074 49.2398 10.4661C49.4486 10.8539 49.553 11.2757 49.553 11.7317V18.4561H46.2548V17.0755H46.178C45.982 17.4419 45.7434 17.7381 45.4621 17.964C45.1852 18.1898 44.8677 18.3539 44.5097 18.4561C44.156 18.5584 43.7661 18.6096 43.34 18.6096ZM44.4905 16.3851C44.759 16.3851 45.0104 16.3297 45.2448 16.2189C45.4834 16.1081 45.6773 15.9483 45.8265 15.7395C45.9756 15.5307 46.0502 15.2772 46.0502 14.9789V14.1607C45.9565 14.199 45.8563 14.2353 45.7498 14.2694C45.6475 14.3034 45.5367 14.3354 45.4174 14.3652C45.3023 14.3951 45.1788 14.4228 45.0467 14.4483C44.9188 14.4739 44.7846 14.4973 44.644 14.5186C44.3712 14.5613 44.1475 14.6316 43.9728 14.7296C43.8023 14.8233 43.6745 14.9405 43.5893 15.0811C43.5083 15.2175 43.4678 15.3709 43.4678 15.5414C43.4678 15.8141 43.5637 16.0229 43.7555 16.1678C43.9472 16.3127 44.1923 16.3851 44.4905 16.3851Z" fill="white"/>
  <path d="M51.4189 18.4561V8.63796H54.8451V10.5044H54.9474C55.1263 9.8141 55.4097 9.30913 55.7975 8.98952C56.1895 8.66992 56.6476 8.51012 57.1718 8.51012C57.3252 8.51012 57.4765 8.52291 57.6256 8.54847C57.779 8.56978 57.9261 8.60174 58.0667 8.64435V11.655C57.892 11.5953 57.6768 11.5506 57.4211 11.5208C57.1654 11.4909 56.9459 11.476 56.7627 11.476C56.4175 11.476 56.1064 11.5549 55.8295 11.7125C55.5567 11.8659 55.3415 12.0833 55.1839 12.3645C55.0262 12.6415 54.9474 12.9675 54.9474 13.3425V18.4561H51.4189Z" fill="white"/>
  <path d="M68.3781 11.834H65.1309C65.1139 11.6337 65.0436 11.4611 64.92 11.3162C64.7964 11.1713 64.6366 11.0605 64.4406 10.9838C64.2488 10.9029 64.0357 10.8624 63.8014 10.8624C63.4988 10.8624 63.2389 10.9178 63.0215 11.0286C62.8042 11.1394 62.6977 11.2971 62.7019 11.5016C62.6977 11.6465 62.7595 11.7807 62.8873 11.9043C63.0194 12.0279 63.273 12.1238 63.648 12.1919L65.6423 12.5499C66.648 12.7331 67.3958 13.0421 67.8859 13.4767C68.3802 13.9071 68.6295 14.4846 68.6338 15.209C68.6295 15.9078 68.4207 16.5151 68.0073 17.0307C67.5982 17.5421 67.0379 17.9384 66.3262 18.2196C65.6188 18.4966 64.8113 18.6351 63.9036 18.6351C62.4036 18.6351 61.2296 18.3283 60.3816 17.7147C59.5379 17.101 59.067 16.2914 58.969 15.2857H62.4718C62.5187 15.5968 62.6721 15.8375 62.932 16.008C63.1962 16.1742 63.5286 16.2573 63.9292 16.2573C64.2531 16.2573 64.5194 16.2019 64.7282 16.0911C64.9413 15.9803 65.0499 15.8226 65.0542 15.6181C65.0499 15.4306 64.9562 15.2814 64.773 15.1706C64.594 15.0598 64.3127 14.9703 63.9292 14.9022L62.1906 14.5953C61.1892 14.4206 60.4391 14.0882 59.9406 13.5982C59.442 13.1081 59.1948 12.4775 59.1991 11.7061C59.1948 11.0243 59.3738 10.4469 59.736 9.9739C60.1025 9.49663 60.6245 9.13441 61.3021 8.88725C61.9839 8.63583 62.7914 8.51012 63.7247 8.51012C65.1437 8.51012 66.2623 8.80416 67.0805 9.39222C67.9029 9.98029 68.3355 10.7942 68.3781 11.834Z" fill="white"/>
  <path d="M74.8702 18.6351C73.8219 18.6351 72.9185 18.4348 72.16 18.0343C71.4057 17.6294 70.824 17.0499 70.415 16.2956C70.0101 15.5371 69.8077 14.6294 69.8077 13.5726C69.8077 12.5584 70.0123 11.6721 70.4214 10.9135C70.8304 10.155 71.4079 9.56481 72.1536 9.14293C72.8993 8.72106 73.7793 8.51012 74.7935 8.51012C75.535 8.51012 76.2062 8.62518 76.807 8.85529C77.4079 9.0854 77.9214 9.41992 78.3475 9.85884C78.7736 10.2935 79.1017 10.8219 79.3319 11.4441C79.562 12.0662 79.677 12.7672 79.677 13.5471V14.3652H70.9071V12.4221H76.4299C76.4256 12.1408 76.3532 11.8936 76.2125 11.6806C76.0762 11.4632 75.8908 11.2949 75.6564 11.1756C75.4263 11.052 75.1643 10.9902 74.8702 10.9902C74.5847 10.9902 74.3226 11.052 74.084 11.1756C73.8454 11.2949 73.6536 11.4611 73.5087 11.6742C73.3681 11.8873 73.2935 12.1365 73.285 12.4221V14.5186C73.285 14.834 73.351 15.1152 73.4831 15.3624C73.6152 15.6096 73.8049 15.8034 74.052 15.9441C74.2992 16.0847 74.5975 16.155 74.9469 16.155C75.1898 16.155 75.4114 16.1209 75.6117 16.0527C75.8162 15.9846 75.991 15.8865 76.1358 15.7587C76.2807 15.6266 76.3873 15.4689 76.4554 15.2857H79.677C79.5662 15.9675 79.3042 16.5598 78.8908 17.0627C78.4775 17.5613 77.9299 17.949 77.2481 18.226C76.5705 18.4988 75.7779 18.6351 74.8702 18.6351Z" fill="white"/>
  <path d="M84.4673 16.1294L84.4929 11.9363H84.9531L87.3309 8.63796H91.294L87.3054 13.7772H86.3082L84.4673 16.1294ZM81.2968 18.4561V5.36523H84.8252V18.4561H81.2968ZM87.3565 18.4561L85.1065 14.5698L87.4076 12.0641L91.3963 18.4561H87.3565Z" fill="white"/>
</svg>
